<?xml version="1.0" encoding="utf-8"?>
<!-- Generator: Adobe Illustrator 26.0.2, SVG Export Plug-In . SVG Version: 6.00 Build 0)  -->
<svg version="1.1" id="Layer_1" xmlns="http://www.w3.org/2000/svg" xmlns:xlink="http://www.w3.org/1999/xlink" x="0px" y="0px"
	 viewBox="0 0 300 300" style="enable-background:new 0 0 300 300;" xml:space="preserve">
<style type="text/css">
	.st0{fill:none;stroke:#000000;stroke-width:5;stroke-miterlimit:10;}
	.st1{fill:none;stroke:#000000;stroke-width:2;stroke-miterlimit:10;}
</style>
<g>
	<g>
		<path class="st0" d="M176.88,113.06"/>
	</g>
	<polygon class="st1" points="226.85,217.87 64.14,233.6 46.71,235.29 64.14,72.57 64.14,217.87 	"/>
	<polygon class="st1" points="72.25,71.42 234.97,55.69 252.39,54 234.97,216.72 234.97,71.42 	"/>
</g>
<polygon class="st0" points="225.18,95.76 194.69,112.93 194.67,112.95 194.67,201.57 177.01,183.91 177.01,112.94 176.72,112.94 
	174.77,114.73 174.49,114.98 172.64,116.68 172.62,116.69 171.63,117.6 169.18,119.85 161.07,127.28 146.67,140.48 144.85,142.15 
	143.85,141.27 127.68,127.13 119.36,119.85 116.23,117.12 111.45,112.94 111.15,112.94 111.15,183.91 93.74,201.58 93.6,112.81 
	71.86,112.81 93.57,95.76 "/>
</svg>
